<?xml version="1.0" encoding="utf-8"?>
<!-- Generator: Adobe Illustrator 27.5.0, SVG Export Plug-In . SVG Version: 6.00 Build 0)  -->
<svg version="1.1" id="layer" xmlns="http://www.w3.org/2000/svg" xmlns:xlink="http://www.w3.org/1999/xlink" x="0px" y="0px"
	 viewBox="0 0 450 450" style="enable-background:new 0 0 450 450;" xml:space="preserve">
<rect style="fill:transparent" width="450" height="450"/>
<g>
	<ellipse style="opacity:0.3;fill:#878787;" cx="227" cy="387.372" rx="169.655" ry="9.332"/>
	<g>
		<g>
			<g>
				<g>
					<g>
						<g>
							<path style="fill:#06050B;" d="M306.608,344.848c0,17.609,14.275,31.884,31.884,31.884c17.609,0,31.884-14.275,31.884-31.884
								s-14.275-31.884-31.884-31.884C320.883,312.964,306.608,327.239,306.608,344.848z M309.75,347.246
								c-0.065-0.793-0.121-1.589-0.121-2.399c0-1.14,0.083-2.259,0.212-3.364h17.878l2.882,2.882l-2.882,2.882H309.75z
								 M325.19,349.775l-10.851,10.851c-2.112-3.226-3.579-6.901-4.26-10.85L325.19,349.775z M310.235,338.955
								c0.793-3.822,2.348-7.361,4.489-10.466l10.466,10.466H310.235z M320.364,322.402l12.477,12.477v4.075h-4.075l-12.509-12.509
								C317.486,324.963,318.866,323.613,320.364,322.402z M332.841,331.304l-10.426-10.426c3.102-2.084,6.63-3.578,10.426-4.332
								V331.304z M338.492,315.984c0.892,0,1.77,0.054,2.641,0.133v17.714l-2.882,2.882l-2.882-2.881v-17.673
								C336.396,316.049,337.436,315.984,338.492,315.984z M332.841,373.15c-4.031-0.801-7.748-2.451-10.984-4.74l10.984-10.984
								V373.15z M343.661,357.426l11.19,11.19c-3.298,2.275-7.094,3.866-11.19,4.608V357.426z M354.27,320.695l-10.609,10.609
								v-14.832C347.52,317.171,351.109,318.626,354.27,320.695z M360.497,326.194l-12.691,12.691
								c-0.027,0.027-0.058,0.045-0.085,0.07h-3.904c-0.027-0.025-0.059-0.043-0.086-0.07c-0.027-0.026-0.044-0.058-0.07-0.085
								v-3.904c0.025-0.027,0.043-0.059,0.07-0.085l12.614-12.614C357.858,323.39,359.251,324.725,360.497,326.194z
								 M348.883,347.246c-0.038,0-0.072-0.01-0.11-0.011l-2.761-2.761c-0.001-0.037-0.011-0.072-0.011-0.11
								c0-0.037,0.01-0.073,0.011-0.11l2.761-2.761c0.037-0.002,0.072-0.011,0.11-0.011l18.261,0
								c0.129,1.105,0.212,2.225,0.212,3.365c0,0.81-0.056,1.606-0.121,2.399H348.883z M366.905,349.775
								c-0.701,4.069-2.227,7.855-4.442,11.15l-11.15-11.15H366.905z M351.313,338.955l10.742-10.742
								c2.244,3.172,3.878,6.803,4.695,10.742L351.313,338.955z M356.894,367.082l-13.162-13.162
								c-0.027-0.027-0.044-0.058-0.07-0.086v-3.904c0.025-0.027,0.043-0.059,0.07-0.086c0.027-0.026,0.058-0.044,0.085-0.07h3.904
								c0.027,0.025,0.059,0.043,0.085,0.07l13.131,13.131C359.727,364.474,358.377,365.854,356.894,367.082z M338.492,373.711
								c-1.056,0-2.096-0.065-3.122-0.175v-18.54c0-0.038,0.01-0.073,0.011-0.11l2.761-2.761c0.037-0.001,0.072-0.011,0.11-0.011
								c0.038,0,0.072,0.01,0.11,0.011l2.761,2.761c0.001,0.037,0.011,0.072,0.011,0.11v18.582
								C340.262,373.657,339.384,373.711,338.492,373.711z M315.841,362.7l12.926-12.925h4.075v4.075l-13.003,13.003
								C318.37,365.607,317.035,364.213,315.841,362.7z"/>
							<path style="fill:#2D2A33;" d="M292.74,344.848c0,25.268,20.484,45.752,45.752,45.752c25.268,0,45.752-20.484,45.752-45.752
								c0-25.268-20.484-45.753-45.752-45.753C313.224,299.095,292.74,319.579,292.74,344.848z M307.557,344.848
								c0-17.085,13.85-30.935,30.935-30.935c17.085,0,30.935,13.85,30.935,30.935c0,17.085-13.85,30.935-30.935,30.935
								C321.407,375.783,307.557,361.932,307.557,344.848z"/>
						</g>
						<circle style="fill:#06050B;" cx="338.492" cy="344.848" r="15.071"/>
					</g>
					<path style="fill:#1C1A21;" d="M328.766,305.062c0.266,0.601-0.046,1.323-0.698,1.612l-12.396,5.493
						c-0.652,0.289-1.397,0.036-1.663-0.565l-12.786-28.851c-0.267-0.601,0.046-1.323,0.698-1.612l12.396-5.493
						c0.652-0.289,1.397-0.036,1.663,0.565L328.766,305.062z"/>
					<path style="fill:#2D2A33;" d="M335.246,341.674c-0.073-0.165,0.013-0.362,0.191-0.442l2.063-0.914
						c0.179-0.079,0.383-0.01,0.456,0.155l3.475,7.683l1.137-0.504c0.451-0.2,0.667-0.699,0.483-1.115l-15.992-35.356
						c-0.184-0.416-0.699-0.591-1.15-0.391l-5.205,2.306c-0.451,0.2-0.667,0.699-0.483,1.115l15.992,35.356
						c0.184,0.416,0.699,0.591,1.15,0.391l1.359-0.602L335.246,341.674z"/>
				</g>
				<path style="fill:#8E1400;" d="M342.667,272.469c3.591,1.14,6.836,2.314,9.772,3.56c14.095,5.982,20.811,13.573,22.755,20.488
					c1.105,3.93-1.424,5.516-5.298,3.75c-3.803-1.733-10.312-3.685-21.565-4.133c-8.327-0.331-18.816,0.103-31.967,1.28
					C321.616,285.6,331.132,276.826,342.667,272.469z"/>
				<path style="fill:#DAE9EE;" d="M317.826,294.396c13.265-0.787,23.655-0.882,31.842-0.255
					c11.759,0.902,18.352,3.396,22.141,5.526c0.981,0.551,1.862,0.836,2.616,0.904c-0.956,0.623-2.554,0.595-4.529-0.305
					c-3.803-1.733-10.312-3.685-21.565-4.133c-8.327-0.331-18.816,0.103-31.967,1.28
					C316.817,296.393,317.297,295.386,317.826,294.396z"/>
				<path style="fill:#C62D14;" d="M348.745,275.926c1.278,0.447,2.503,0.894,3.682,1.366c13.332,5.337,19.872,12.482,21.786,19.091
					c0.253,0.873,0.316,1.595,0.24,2.189c-2.776-4.169-7.917-8.121-16.554-11.096C354.192,284.167,350.735,280.205,348.745,275.926z
					"/>
				<path style="fill:#1C1A21;" d="M122.87,293.922c-0.267,0.601,0.046,1.323,0.698,1.612l12.396,5.493
					c0.652,0.289,1.397,0.036,1.663-0.565l12.786-28.85c0.266-0.601-0.046-1.323-0.698-1.612l-12.396-5.493
					c-0.652-0.289-1.396-0.036-1.663,0.565L122.87,293.922z"/>
				<g>
					<path style="fill:#26232B;" d="M157.036,342.75c3.135,8.065,12.493,14.603,20.903,14.603l52.142,0
						c8.41,0,14.554-6.538,11.419-14.603l-23.637-10.776c-3.135-8.065-0.357-28.608-8.766-28.608h-52.141
						c-8.41,0-12.686,6.538-9.551,14.603L157.036,342.75z"/>
					<path style="fill:#1C1A21;" d="M174.972,349.719h52.141c8.41,0,14.554-6.538,11.419-14.603l2.967,7.633
						c3.135,8.065-3.009,14.603-11.419,14.603l-52.142,0c-8.41,0-17.768-6.538-20.903-14.603l-2.967-7.633
						C157.203,343.181,166.562,349.719,174.972,349.719z"/>
				</g>
				<path style="fill:#8E1400;" d="M267.698,222.154c0,0,19.841,0,29.993,9.69c10.152,9.69,35.53,29.993,24.917,31.377
					c-10.613,1.384-16.15,4.614-21.687,14.766s-17.073,16.611-13.382,23.533c3.691,6.922,9.981,11.661,1.214,20.428
					c-8.767,8.767-9.519,20.178-20.594,19.716c-11.074-0.461-93.208-11.536-94.131-12.92c-0.923-1.384,48.213-2.768,52.366-2.768
					c14.08,0,42.688,0.922,50.071-24.457c7.383-25.379,8.306-25.379,2.307-38.76C272.774,249.378,258.469,223.077,267.698,222.154z"
					/>
				<path style="fill:#AD2202;" d="M325.451,297.134c6.011-1.472,22.788-9.036,18.559-10.399
					c-4.228-1.363-28.157-13.052-43.521-14.869c-28.177,35.192-6.847,31.858-13.873,47.651
					c-3.514,7.899-20.303,12.689-68.135,12.294c-12.448-0.103-8.01,25.082-6.616,25.082c68.753,0,74.286-2.673,77.059-19.38
					C291.551,321.681,303.007,302.631,325.451,297.134z"/>
				<path style="fill:#8E1400;" d="M137.167,263.589c-5.866-0.205-11.236-0.215-16.182,0.001
					c-23.748,1.034-37.333,7.315-43.524,14.893c-3.519,4.307-0.531,7.368,6.055,6.935c6.464-0.425,17.043,0.087,33.93,4.545
					c12.496,3.299,27.829,8.494,46.752,15.781C162.07,288.984,152.172,274.039,137.167,263.589z"/>
				<path style="fill:#DAE9EE;" d="M163.474,301.409c-19.278-6.861-34.626-11.598-47.056-14.473
					c-17.855-4.129-28.817-4.016-35.451-3.101c-1.718,0.237-3.159,0.192-4.309-0.059c1.119,1.186,3.499,1.862,6.857,1.642
					c6.464-0.425,17.043,0.087,33.93,4.545c12.496,3.299,27.829,8.494,46.752,15.781
					C164.014,304.296,163.784,302.854,163.474,301.409z"/>
				<path style="fill:#AD2202;" d="M126.505,265.107c-2.107-0.023-4.137-0.022-6.109,0.03c-22.309,0.587-35.419,6.401-41.421,13.62
					c-0.793,0.954-1.231,1.807-1.403,2.566c6.11-3.855,15.619-6.394,29.84-6.185C114.49,272.746,121.509,269.447,126.505,265.107z"
					/>
				<path style="fill:#8E1400;" d="M285.463,334.397c2.627-15.83,14.084-34.88,36.527-40.378c3.308-0.81,13.846-4.198,21.953-7.308
					c0.02,0.007,0.048,0.017,0.067,0.023c4.229,1.363-12.548,8.927-18.559,10.399c-22.443,5.497-33.9,24.548-36.527,40.378
					c-2.737,16.491-0.928,19.84-45.476,19.84c-0.713,0-30.699,0.002-31.425,0.002c-0.306,0-0.918-1.68-1.307-3.577
					C277.273,353.714,282.722,350.914,285.463,334.397z"/>
				<path style="fill:#AD2202;" d="M164.887,331.768v-13.965c0-16.731-9.581-31.215-23.55-38.293h42.144
					c23.7,0,42.913,19.213,42.913,42.913v9.344H164.887z"/>
				<path style="fill:#C62D14;" d="M211.712,271.157c3.148,2.055-2.159,14.575-7.288,14.575c-5.128,0-40.486,0-49.663,0
					c-9.177,0-76.384-39.677-76.384-48.314C78.377,228.781,146.394,228.511,211.712,271.157z"/>
				<g>
					<g>
						<path style="fill:#06050B;" d="M75.894,344.847c0,17.609,14.275,31.884,31.884,31.884c17.609,0,31.884-14.275,31.884-31.884
							c0-17.609-14.275-31.884-31.884-31.884C90.169,312.963,75.894,327.238,75.894,344.847z M79.036,347.246
							c-0.065-0.793-0.121-1.589-0.121-2.399c0-1.14,0.084-2.259,0.212-3.364h17.878l2.882,2.881l-2.882,2.882L79.036,347.246z
							 M94.476,349.775l-10.851,10.851c-2.112-3.226-3.579-6.901-4.26-10.85L94.476,349.775z M79.52,338.955
							c0.793-3.822,2.348-7.361,4.489-10.466l10.466,10.466H79.52z M89.649,322.402l12.477,12.477v4.075h-4.075l-12.509-12.509
							C86.772,324.963,88.152,323.613,89.649,322.402z M102.127,331.304L91.7,320.877c3.102-2.085,6.63-3.578,10.427-4.332V331.304z
							 M107.778,315.984c0.892,0,1.77,0.054,2.641,0.133v17.714l-2.881,2.882l-2.882-2.882v-17.673
							C105.682,316.049,106.722,315.984,107.778,315.984z M102.127,373.15c-4.031-0.8-7.748-2.451-10.984-4.74l10.984-10.984V373.15
							z M112.947,357.426l11.19,11.19c-3.298,2.275-7.094,3.866-11.19,4.607V357.426z M123.556,320.695l-10.609,10.609l0-14.832
							C116.805,317.171,120.395,318.626,123.556,320.695z M129.783,326.194l-12.691,12.691c-0.026,0.026-0.058,0.044-0.086,0.07
							h-3.904c-0.027-0.025-0.059-0.043-0.085-0.07c-0.027-0.027-0.045-0.058-0.07-0.085v-3.905c0.025-0.027,0.043-0.059,0.07-0.085
							l12.613-12.614C127.143,323.39,128.537,324.725,129.783,326.194z M118.168,347.246c-0.037,0-0.072-0.01-0.11-0.011
							l-2.761-2.761c-0.001-0.037-0.011-0.072-0.011-0.11c0-0.038,0.01-0.073,0.011-0.11l2.761-2.761
							c0.037-0.001,0.072-0.011,0.11-0.011h18.261c0.129,1.105,0.212,2.224,0.212,3.364c0,0.81-0.056,1.606-0.121,2.399
							L118.168,347.246z M136.191,349.775c-0.701,4.069-2.227,7.855-4.442,11.151l-11.15-11.151H136.191z M120.598,338.955
							l10.742-10.742c2.244,3.172,3.878,6.804,4.695,10.742L120.598,338.955z M126.179,367.082l-13.162-13.162
							c-0.027-0.027-0.045-0.058-0.07-0.086v-3.904c0.025-0.027,0.043-0.059,0.07-0.085c0.026-0.027,0.058-0.045,0.085-0.07h3.904
							c0.027,0.025,0.059,0.043,0.085,0.07l13.131,13.131C129.012,364.474,127.662,365.853,126.179,367.082z M107.778,373.711
							c-1.056,0-2.096-0.065-3.122-0.175v-18.54c0-0.038,0.01-0.073,0.011-0.11l2.761-2.761c0.037-0.002,0.072-0.011,0.11-0.011
							c0.037,0,0.072,0.01,0.11,0.011l2.761,2.761c0.002,0.037,0.011,0.072,0.011,0.11v18.582
							C109.548,373.657,108.669,373.711,107.778,373.711z M85.126,362.7l12.925-12.926h4.075v4.075l-13.003,13.003
							C87.655,365.607,86.32,364.213,85.126,362.7z"/>
						<path style="fill:#2D2A33;" d="M62.025,344.848c0,25.268,20.484,45.752,45.752,45.752c25.269,0,45.753-20.484,45.753-45.752
							c0-25.268-20.484-45.752-45.752-45.752C82.509,299.095,62.025,319.579,62.025,344.848z M76.843,344.847
							c0-17.085,13.85-30.935,30.935-30.935c17.085,0,30.935,13.85,30.935,30.935c0,17.085-13.85,30.935-30.935,30.935
							C90.693,375.783,76.843,361.932,76.843,344.847z"/>
					</g>
					
						<ellipse transform="matrix(0.9817 -0.1904 0.1904 0.9817 -63.6957 26.8338)" style="fill:#06050B;" cx="107.778" cy="344.848" rx="15.071" ry="15.071"/>
				</g>
				<path style="fill:#AD2202;" d="M211.712,271.157c1.958,1.278,0.644,6.601-1.862,10.446c-19.268-1.593-43.014-8.85-56.785-15.033
					c-25.967-11.659-48.675-24.48-61.317-30.343c-2.083-0.966-3.761-1.911-5.05-2.816
					C106.779,230.555,160.084,237.449,211.712,271.157z"/>
				<path style="fill:#C62D14;" d="M153.756,331.02c0,3.895,3.158,7.053,7.053,7.053h62.212c3.895,0,7.053-3.158,7.053-7.053l0,0
					c0-3.895-3.158-7.053-7.053-7.053h-62.212C156.914,323.967,153.756,327.125,153.756,331.02L153.756,331.02z"/>
				<path style="fill:#8E1400;" d="M160.809,334.095h62.212c3.2,0,5.87-2.144,6.733-5.064c0.188,0.635,0.32,1.294,0.32,1.989
					c0,3.895-3.158,7.053-7.053,7.053h-62.212c-3.895,0-7.053-3.158-7.053-7.053c0-0.696,0.132-1.355,0.32-1.99
					C154.939,331.95,157.61,334.095,160.809,334.095z"/>
				<g>
					<path style="fill:#423F4C;" d="M206.584,244.436c11.536,0,23.738,4.481,23.738,21.554c0,22.535-53.491,9.057-76.101-1.094
						c-22.61-10.151-42.382-21.315-53.39-26.421c-10.956-5.081-9.302-9.498,5.003-9.498
						C141.806,228.977,166.367,244.436,206.584,244.436z"/>
					<path style="fill:#595666;" d="M223.501,268.143c0.284-16.086-11.658-20.393-23.018-20.473
						c-39.604-0.281-63.535-15.016-98.959-15.267c-1.474-0.01-2.755,0.071-3.874,0.22c0.884-1.539,3.846-2.723,9.338-2.684
						c35.424,0.251,59.354,14.986,98.958,15.267c11.36,0.081,23.302,4.388,23.018,20.473c-0.067,3.805-3.081,6.127-7.899,7.348
						C222.595,271.779,223.465,270.171,223.501,268.143z"/>
					<path style="fill:#2D2A33;" d="M95.015,230.688c0.965,1.34,3.151,2.856,6.561,4.438c11.007,5.105,30.78,16.269,53.39,26.421
						c20.996,9.427,68.594,21.703,75.286,5.364c-1.493,21.204-53.744,7.991-76.03-2.015c-22.61-10.151-42.382-21.315-53.39-26.421
						C94.04,235.325,92.106,232.433,95.015,230.688z"/>
				</g>
				<g>
					<path style="fill:#C62D14;" d="M355.548,275.185c1.816,2.738-7.203,14.575-11.432,13.212
						c-4.228-1.363-36.06-14.094-43.627-16.533c0,0-45.361-55.337-42.084-63.328C261.681,200.545,317.867,218.37,355.548,275.185z"
						/>
					<path style="fill:#E8321F;" d="M348.3,285.617c-25.905-39.787-58.761-66.377-77.833-75.46
						c15.126,1.834,54.682,23.092,83.559,66.63c0.131,0.335-0.179,1.947-1.958,4.558C350.934,283.009,349.578,284.517,348.3,285.617
						z"/>
					<path style="fill:#2D2A33;" d="M249.007,200.159c0,5.881,4.767,10.648,10.648,10.648h14.994c5.88,0,10.648-4.767,10.648-10.648
						l0,0c0-5.881-4.767-10.648-10.648-10.648h-14.994C253.774,189.512,249.007,194.279,249.007,200.159L249.007,200.159z"/>
					<path style="fill:#C62D14;" d="M268.347,181.037c-4.346,3.694-25.207,28.684,28.901,24.338
						C296.161,193.206,268.347,181.037,268.347,181.037z"/>
					<path style="fill:#423F4C;" d="M259.512,200.997c0.961,1.932,0.248,3.855-1.593,4.296l-13.282,3.018
						c-1.841,0.441-4.112-0.768-5.074-2.7l0,0c-0.961-1.932-0.248-3.855,1.593-4.296l13.282-3.018
						C256.28,197.857,258.551,199.066,259.512,200.997L259.512,200.997z"/>
					<path style="fill:#2D2A33;" d="M245.083,204.109c0.662,1.33,0.171,2.655-1.097,2.958l-0.153,0.026
						c-1.268,0.303-2.832-0.529-3.494-1.859l0,0c-0.662-1.331-0.171-2.655,1.097-2.959l0.153-0.026
						C242.857,201.946,244.421,202.778,245.083,204.109L245.083,204.109z"/>
					<g>
						<path style="fill:#E8321F;" d="M270.635,182.691c5.39,2.546,24.296,12.134,25.153,21.729
							c-3.591,0.288-6.812,0.432-9.717,0.457C283.762,198.024,276.489,189.112,270.635,182.691z"/>
					</g>
				</g>
				<g>
					<path style="fill:#2D2A33;" d="M111.251,342.963c0.073-0.165-0.013-0.363-0.191-0.442l-2.062-0.914
						c-0.179-0.079-0.383-0.01-0.456,0.155l-3.475,7.683l-1.137-0.504c-0.451-0.2-0.667-0.699-0.483-1.115l15.992-35.356
						c0.184-0.416,0.699-0.591,1.15-0.391l5.205,2.307c0.451,0.2,0.667,0.699,0.483,1.115l-15.992,35.356
						c-0.184,0.416-0.699,0.591-1.15,0.391l-1.359-0.602L111.251,342.963z"/>
					<path style="fill:#DAE9EE;" d="M113.799,321.162l11.098-25.04l9.888,4.382l-11.097,25.04c-0.266,0.601-1.011,0.854-1.663,0.565
						l-7.526-3.335C113.845,322.485,113.533,321.763,113.799,321.162z"/>
				</g>
				<path style="fill:#8E1400;" d="M351.137,274.525c0,3.089-13.749-2.437-20.176-4.441c-6.33-1.974-2.545-7.551-0.593-14.474
					c0.788-2.796,4.649-1.358,10.385,3.865C346.488,264.698,351.137,271.436,351.137,274.525z"/>
				<path style="fill:#DAE9EE;" d="M338.907,261.782c4.977,4.533,9.132,10.203,10.144,13.642c-4.091-0.262-13.204-3.817-18.09-5.341
					c-6.046-1.885-2.867-7.062-0.869-13.555C331.869,256.369,334.938,258.168,338.907,261.782z"/>
				<path style="fill:#DAE9EE;" d="M327.048,307.126l5.65,12.747c0.266,0.601-0.046,1.323-0.698,1.612l-7.526,3.335
					c-0.652,0.289-1.397,0.036-1.663-0.565l-5.65-12.747L327.048,307.126z"/>
			</g>
		</g>
		<g>
			<path style="fill:#FED09E;" d="M220.366,100.024c-1.89,13.723-13.057,23.132-24.942,21.017
				c-11.885-2.115-19.986-14.954-18.096-28.676c1.89-13.723,13.057-23.132,24.942-21.017
				C214.155,73.462,222.257,86.301,220.366,100.024z"/>
			<g>
				<path style="fill:#FED09E;" d="M254.551,307.698c-0.162,6.119-5.24,11.132-11.343,11.196l0,0
					c-6.103,0.064-3.546-5.294-3.321-11.414c1.156-31.37-11.21-37.099-7.415-62.38c0.913-6.08,7.078-18.722,13.18-18.786l0,0
					c6.103-0.064,10.92,4.845,10.758,10.964L254.551,307.698z"/>
				
					<rect x="172.86" y="114.073" transform="matrix(0.4754 -0.8798 0.8798 0.4754 -9.3974 231.0904)" style="fill:#FED09E;" width="32.414" height="18.703"/>
				<path style="fill:#5CAD0E;" d="M198.269,214.484c-5.171-0.92-10.174-1.503-14.899-1.803
					c2.911-15.555,10.678-26.534,13.072-39.984c4.658-26.173-7.237-37.224-16.532-51.999c-15.558,3.58-16.922,22.411-20.164,54.838
					c-1.841,18.408-10.005,42.473-8.599,54.197c1.001,8.349,4.762,14.731,41.786,14.731c8.211,0,38.522,1.584,40.226,0.586
					c13.635-7.981,22.471-10.553,22.746-12.094C257.379,224.677,223.373,218.951,198.269,214.484z"/>
				<path style="fill:#417703;" d="M198.533,241.1c-33.272,0-44.23-7.714-45.543-16.303c-0.524-3.425-1.013-12.011-1.536-17.512
					c0.363,8.701-0.894,17.554-0.307,22.449c1.001,8.349,7.16,14.73,41.786,14.731c7.688,0,34.727,1.56,39.559,0.763
					C221.109,244.375,204.662,241.1,198.533,241.1z"/>
				<path style="fill:#178FCE;" d="M185.257,212.815c3.157-14.572,8.89-27.217,11.185-40.117
					c4.658-26.173-7.237-37.224-16.532-51.999c-15.558,3.58-27.251,18.472-25.28,51.001c1.279,21.102-3.512,34.697-3.802,47.72
					C151.568,219.459,177.036,215.749,185.257,212.815z"/>
				<path style="fill:#0E72AD;" d="M184.406,131.265c-0.329,0.076-14.19,8.279-14.511,8.363
					c-12.067,5.854,9.942,44.108,11.574,47.047c1.788,3.22,5.547,6.111,8.798,7.859c2.322-7.473,4.662-14.646,6.175-21.837
					C199.546,157.937,193.701,146.04,184.406,131.265z"/>
				<path style="fill:#FED09E;" d="M237.378,193.621l-35.026-19.289l-16.523-40.751c-2.011-4.266-7.104-6.095-11.374-4.085
					c-4.27,2.01-12.99,10.002-6.395,21.102l19.771,33.014c0.532,1.127,1.287,2.07,2.176,2.831c0.83,1.054,1.889,1.95,3.2,2.534
					l45.905,13.318c8.88-6.934,8.425,8.425,15.095,1.886C257.579,200.874,254.724,189.408,237.378,193.621z"/>
				<g>
					<path style="fill:#FF3600;" d="M277.077,323.111c6.601-8.619-10.949-9.033-22.525-15.413c0,0-7.257,4.863-15.211,3.493
						c0,0-5.426,16.702-0.457,16.891C238.883,328.082,266.443,328.566,277.077,323.111z"/>
					<path style="fill:#06050B;" d="M277.97,320.651c-11.18,5.736-40.155,5.227-40.155,5.227c-0.581-0.022-1.036-0.22-1.412-0.518
						c0.288,1.539,1.002,2.666,2.481,2.722c0,0,27.559,0.484,38.193-4.971c0.957-1.25,1.387-2.294,1.409-3.194
						C278.331,320.155,278.164,320.398,277.97,320.651z"/>
				</g>
				<path style="fill:#75CE17;" d="M204.319,216.157c-7.196-1.231-14.037-2.231-20.172-2.976
					c-4.363,1.363-11.944,2.849-18.783,4.029c22.452-0.956,49.371,0.245,84.718,11.637
					C250.529,226.238,230.04,220.557,204.319,216.157z"/>
				<path style="fill:#EFBB86;" d="M188.085,119.679c0.475,5.206,3.218,12.084,5.478,15.093l6.432-11.266
					C196.974,122.51,192.55,121.819,188.085,119.679z"/>
				<path style="fill:#FFDD50;" d="M216.3,112.036c-5.177-1.78-9.712-7.308-10.13-12.347l-0.529-6.387
					c-0.418-5.039,3.44-7.681,8.617-5.901l10.233,3.519c-0.223-1.049-0.479-2.075-0.778-3.063
					c-4.436-14.671-21.597-21.263-33.915-17.538c-12.318,3.724-23.776,23.391-15.904,42.183
					c2.063,4.923,33.975,14.244,51.937,15.686c3.295,0.264,3.18-13.198-1.912-13.53L216.3,112.036z"/>
				<path style="fill:#F2CD30;" d="M201.988,89.228c1.004,1.978,0.215,4.397-1.764,5.401c-1.978,1.004-4.397,0.215-5.401-1.764
					c-1.004-1.979-0.215-4.397,1.764-5.401C198.565,86.46,200.984,87.25,201.988,89.228z"/>
				<g>
					<path style="fill:#F2CD30;" d="M224.885,115.391l-0.506-0.17c-0.522,3.497,0.21,8.633-1.868,8.416
						c-18.004-1.875-44.342-9.48-49.888-14.741c0.514,1.275,1.103,2.553,1.778,3.83c2.775,5.24,31.5,13.773,50.722,15.775
						C228.649,128.868,230.325,115.878,224.885,115.391z"/>
				</g>
				<path style="fill:#FFE67B;" d="M207.747,74.47c1.446,2.847-7.382,2.451-15.844,6.746c-8.461,4.295-13.351,11.656-14.797,8.808
					c-1.445-2.848,1.998-13.057,10.459-17.352C196.027,68.377,206.302,71.623,207.747,74.47z"/>
				<path style="opacity:0.5;fill:#1C96D3;" d="M225.001,88.747c0,0,6.592,14.676,2.072,31.131
					c-17.151-6.313-34.207-19.201-34.4-28.881C192.426,78.679,216.062,82.128,225.001,88.747z"/>
			</g>
		</g>
		<g>
			<g>
				<path style="fill:#FED09E;" d="M161.973,103.081c-2.003,11.254-11.477,18.98-21.162,17.257
					c-9.684-1.724-15.912-12.244-13.909-23.498c2.003-11.254,11.477-18.98,21.161-17.257
					C157.748,81.307,163.976,91.827,161.973,103.081z"/>
				<g>
					<path style="fill:#FED09E;" d="M195.44,312.354c0.053,6.244,6.601,11.987,0.703,11.627l-5.663,0.026
						c-5.898-0.36-6.119-2.736-5.789-8.943c2.018-37.948-9.819-45.258-8.197-62.708c1.025-11.028,4.163-12.896,3.433-15.071
						l4.133-8.743c5.898,0.36,10.722,5.714,10.775,11.958L195.44,312.354z"/>
					<polygon style="fill:#FED09E;" points="128.877,136.858 114.605,130.774 130.414,101.538 143.792,107.806 					"/>
					<path style="fill:#FED09E;" d="M138.287,213.144c-4.996-1.301-9.83-2.246-14.396-2.881
						c-14.361-23.546,14.521-36.801,8.876-49.825c-9.983-23.033-3.663-24.104-12.623-39.857
						c-15.041,2.575-14.112,16.175-17.295,49.101c-1.807,18.691-14.752,42.515-10.125,55.768
						c2.879,8.243,20.491,10.843,44.826,16.665c24.262,5.804,43.062-0.603,44.71-1.504c13.189-7.209,12.626,5.973,11.699-4.563
						C193.201,227.434,162.541,219.461,138.287,213.144z"/>
					<path style="fill:#FFDD50;" d="M121.556,117.919c-15.952,3.671-22.675,20.803-22.675,54.218c0,7.65-1.355,13.213-3.049,16.939
						c16.939,7.115,27.78,2.441,27.78,2.441c0.733-9.848,7.005-17.676,11.631-21.257
						C152.798,156.669,139.772,153.589,121.556,117.919z"/>
					<path style="fill:#F2CD30;" d="M132.823,173.849c2.426-1.878,6.669-7.141,7.994-8.732l-11.805-29.974l-0.305-0.883
						c0.559,1.187-2.087-8.145-8.562-8.145c-1.631,0-3.002,0.276-4.486,0.975c-2.668,1.256-4.026,3.192-5.022,5.964
						c-0.996,2.77,1.499,13.911,2.756,16.572l5.052,12.695C127.253,179.16,130.253,175.839,132.823,173.849z"/>
					<path style="fill:#FED09E;" d="M180.867,189.415l-39.299-17.956l-13.944-40.332c-2.063-4.375-7.284-6.25-11.663-4.189
						c-4.378,2.061-6.256,7.278-4.193,11.653l18.477,39.186c0.545,1.156,1.319,2.123,2.231,2.903
						c0.852,1.081,1.937,1.999,3.282,2.598l45.352,13.157c8.556,1.771,7.148,4.791,9.556,1.771
						C193.684,194.421,198.653,185.096,180.867,189.415z"/>
					<g>
						<g>
							<path style="fill:#EFBB86;" d="M139.119,240.166c-23.11-5.562-40.53-8.502-46.435-14.875
								c0.017,0.051,0.023,0.108,0.041,0.159c2.879,8.243,20.491,10.843,44.826,16.665c21.338,5.105,38.439,0.767,43.375-0.966
								C172.848,242.856,157.494,244.588,139.119,240.166z"/>
						</g>
						<path style="fill:#A94EEA;" d="M128.092,229.157c0.182-1.659-7.187-5.38-6.966-6.613c0.325-1.814,7.942,1.095,8.39-1.499
							c0.595-3.451,0.557-4.2,2.044-9.655c-2.646-0.658-6.498-0.964-7.669-1.127c-0.263-0.431-2.225-4.507-2.459-4.931
							c-2.538,1.051-11.051,5.09-29.04,6.683c-0.852,5.081-0.975,9.689,0.333,13.435c2.166,6.203,11.002,9.605,33.954,14.141
							C126.757,238.064,127.644,233.232,128.092,229.157z"/>
						<g>
							<path style="fill:#8D3DD3;" d="M126.979,235.441c-0.023-0.03-0.034-0.057-0.057-0.087c-0.029,0.26-0.052,0.495-0.061,0.672
								c-22.952-4.536-31.788-7.937-33.954-14.141c-0.678-1.941-0.965-4.118-0.972-6.469c-0.372,3.737-0.22,7.143,0.789,10.033
								c2.166,6.204,11.002,9.605,33.954,14.141c0.037-0.717,0.255-2.177,0.519-3.934
								C127.122,235.59,127.044,235.527,126.979,235.441z"/>
						</g>
					</g>
					<g>
						<path style="fill:#DAE9EE;" d="M218.05,326.476c6.072-8.624-9.841-3.535-22.543-15.109c0,0-4.409,1.639-10.684,2.63
							c0,0-3.031,11.495,0.533,12.945c0.482,1.406,1.003,1.798,2.205,1.885C187.56,328.826,207.972,331.736,218.05,326.476z"/>
					</g>
					<path style="fill:#EFBB86;" d="M128.185,113.168c0.487,5.338,2.07,13.113,4.387,16.198l4.434-8.2
						C134.638,119.16,128.185,113.168,128.185,113.168z"/>
					<path style="fill:#553421;" d="M121.613,108.013c0,0-29.298,23.991-39.61,10.479c3.1,11.11,19.179,16.316,24.889,10.132
						c5.023-5.44,7.826-8.728,15.001-10.05c12.839-3.398,17.897-10.807,18.151-12.839
						C140.298,103.703,121.613,108.013,121.613,108.013z"/>
					<g>
						<path style="fill:#E24BE2;" d="M155.034,113.133c-4.471-2.002-8.07-7.293-8.038-11.818l0.041-5.735
							c0.032-4.525,3.683-6.57,8.154-4.568l8.838,3.957c-0.114-0.953-0.261-1.888-0.448-2.792
							c-2.776-13.431-17.543-20.684-28.82-18.353c-11.277,2.331-23.068,18.94-17.559,36.321
							c1.443,4.553,24.242,13.284,40.136,16.011c2.915,0.5,8.789-9.371,4.277-10.076L155.034,113.133z"/>
						<path style="fill:#C62D14;" d="M144.108,91.656c0.736,1.844-0.161,3.936-2.005,4.672c-1.844,0.736-3.936-0.161-4.672-2.005
							c-0.736-1.844,0.161-3.936,2.005-4.672C141.28,88.914,143.372,89.812,144.108,91.656z"/>
						<g>
							<path style="fill:#C030C4;" d="M161.615,116.079l-0.157-0.07c-1.042,2.91-3.773,6.212-5.49,5.918
								c-14.886-2.554-35.829-10.374-39.61-15.097c0.215,1.099,0.493,2.205,0.844,3.314c1.443,4.553,24.242,13.284,40.136,16.011
								C160.253,126.655,166.126,116.784,161.615,116.079z"/>
						</g>
						<path style="fill:#F562F9;" d="M150.425,78.964c1.06,2.654-6.777,1.592-14.663,4.741c-7.886,3.149-12.835,9.317-13.895,6.663
							c-1.06-2.654,2.829-11.477,10.715-14.626C140.468,72.593,149.365,76.31,150.425,78.964z"/>
						<path style="opacity:0.5;fill:#1C96D3;" d="M164.518,92.907c0,0,4.698,13.609-0.651,27.913
							c-14.78-7.002-28.947-19.858-28.343-28.501C136.293,81.319,157.082,86.29,164.518,92.907z"/>
					</g>
				</g>
			</g>
		</g>
		<path style="fill:#06050B;" d="M184.923,326.942c0.493,1.076,1.198,1.811,2.233,1.885c0,0,20.672,2.91,30.879-2.35
			c0.643-0.901,1.029-1.646,1.215-2.282C208.835,329.545,188.871,327.427,184.923,326.942z"/>
	</g>
</g>
</svg>
